<svg xmlns="http://www.w3.org/2000/svg" xmlns:xlink="http://www.w3.org/1999/xlink" width="1920" zoomAndPan="magnify" viewBox="0 0 1440 809.999993" height="1080" preserveAspectRatio="xMidYMid meet" version="1.0"><defs><clipPath id="7b010be59e"><path d="M 815 274.082031 L 843 274.082031 L 843 302 L 815 302 Z M 815 274.082031 " clip-rule="nonzero"/></clipPath><clipPath id="90c3c78fd6"><path d="M 589.082031 435 L 819 435 L 819 499 L 589.082031 499 Z M 589.082031 435 " clip-rule="nonzero"/></clipPath><clipPath id="79d234e94a"><path d="M 630 522 L 644 522 L 644 535.832031 L 630 535.832031 Z M 630 522 " clip-rule="nonzero"/></clipPath></defs><path fill="#ffffff" d="M 623.871094 423.511719 C 623.476562 423.511719 623.09375 423.585938 622.730469 423.738281 C 622.363281 423.890625 622.042969 424.105469 621.761719 424.382812 C 621.484375 424.664062 621.269531 424.988281 621.117188 425.351562 C 620.964844 425.71875 620.890625 426.097656 620.890625 426.492188 C 620.890625 426.886719 620.964844 427.269531 621.117188 427.632812 C 621.269531 428 621.484375 428.320312 621.761719 428.601562 C 622.042969 428.882812 622.363281 429.097656 622.730469 429.246094 C 623.09375 429.398438 623.476562 429.476562 623.871094 429.476562 C 624.265625 429.476562 624.648438 429.398438 625.011719 429.246094 C 625.378906 429.097656 625.699219 428.882812 625.980469 428.601562 C 626.257812 428.320312 626.476562 428 626.625 427.632812 C 626.777344 427.269531 626.851562 426.886719 626.851562 426.492188 C 626.851562 426.097656 626.777344 425.71875 626.625 425.351562 C 626.476562 424.988281 626.257812 424.664062 625.980469 424.382812 C 625.699219 424.105469 625.378906 423.890625 625.011719 423.738281 C 624.648438 423.585938 624.265625 423.511719 623.871094 423.511719 Z M 819.6875 341.671875 C 819.378906 341.671875 819.082031 341.730469 818.796875 341.847656 C 818.511719 341.964844 818.261719 342.132812 818.042969 342.351562 C 817.824219 342.566406 817.65625 342.820312 817.539062 343.105469 C 817.421875 343.386719 817.363281 343.683594 817.363281 343.992188 C 817.363281 344.300781 817.421875 344.597656 817.539062 344.878906 C 817.65625 345.164062 817.824219 345.417969 818.042969 345.632812 C 818.261719 345.851562 818.511719 346.019531 818.796875 346.136719 C 819.082031 346.253906 819.378906 346.3125 819.6875 346.3125 C 819.996094 346.3125 820.292969 346.253906 820.574219 346.136719 C 820.859375 346.019531 821.113281 345.851562 821.328125 345.632812 C 821.546875 345.417969 821.714844 345.164062 821.832031 344.878906 C 821.953125 344.597656 822.011719 344.300781 822.011719 343.992188 C 822.011719 343.683594 821.953125 343.386719 821.832031 343.105469 C 821.714844 342.820312 821.546875 342.566406 821.328125 342.351562 C 821.113281 342.132812 820.859375 341.964844 820.574219 341.847656 C 820.292969 341.730469 819.996094 341.671875 819.6875 341.671875 Z M 819.6875 341.671875 " fill-opacity="1" fill-rule="nonzero"/><path fill="#f1bc19" d="M 810.742188 278.058594 C 810.34375 278.058594 809.964844 278.132812 809.601562 278.285156 C 809.234375 278.4375 808.910156 278.652344 808.632812 278.929688 C 808.351562 279.210938 808.136719 279.53125 807.984375 279.898438 C 807.835938 280.265625 807.757812 280.644531 807.757812 281.039062 C 807.757812 281.433594 807.835938 281.816406 807.984375 282.179688 C 808.136719 282.546875 808.351562 282.867188 808.632812 283.148438 C 808.910156 283.429688 809.234375 283.644531 809.601562 283.792969 C 809.964844 283.945312 810.34375 284.023438 810.742188 284.023438 C 811.136719 284.023438 811.515625 283.945312 811.882812 283.792969 C 812.246094 283.644531 812.570312 283.429688 812.847656 283.148438 C 813.128906 282.867188 813.34375 282.546875 813.496094 282.179688 C 813.648438 281.816406 813.722656 281.433594 813.722656 281.039062 C 813.722656 280.644531 813.648438 280.265625 813.496094 279.898438 C 813.34375 279.53125 813.128906 279.210938 812.847656 278.929688 C 812.570312 278.652344 812.246094 278.4375 811.882812 278.285156 C 811.515625 278.132812 811.136719 278.058594 810.742188 278.058594 Z M 625.527344 449.023438 C 625.132812 449.023438 624.753906 449.097656 624.386719 449.25 C 624.019531 449.402344 623.699219 449.617188 623.417969 449.898438 C 623.140625 450.175781 622.925781 450.5 622.773438 450.863281 C 622.621094 451.230469 622.546875 451.609375 622.546875 452.003906 C 622.546875 452.402344 622.621094 452.78125 622.773438 453.148438 C 622.925781 453.511719 623.140625 453.835938 623.417969 454.113281 C 623.699219 454.394531 624.019531 454.609375 624.386719 454.761719 C 624.753906 454.910156 625.132812 454.988281 625.527344 454.988281 C 625.921875 454.988281 626.304688 454.910156 626.667969 454.761719 C 627.035156 454.609375 627.355469 454.394531 627.636719 454.113281 C 627.917969 453.835938 628.132812 453.511719 628.28125 453.148438 C 628.433594 452.78125 628.511719 452.402344 628.511719 452.003906 C 628.511719 451.609375 628.433594 451.230469 628.28125 450.863281 C 628.132812 450.5 627.917969 450.175781 627.636719 449.898438 C 627.355469 449.617188 627.035156 449.402344 626.667969 449.25 C 626.304688 449.097656 625.921875 449.023438 625.527344 449.023438 Z M 625.527344 449.023438 " fill-opacity="1" fill-rule="nonzero"/><path fill="#c0e5e4" d="M 720.949219 280.375 C 718.921875 280.375 716.894531 280.425781 714.871094 280.527344 C 712.84375 280.625 710.824219 280.773438 708.804688 280.972656 C 706.785156 281.171875 704.773438 281.421875 702.769531 281.71875 C 700.761719 282.015625 698.765625 282.363281 696.777344 282.757812 C 694.785156 283.152344 692.808594 283.597656 690.839844 284.089844 C 688.875 284.582031 686.921875 285.125 684.980469 285.710938 C 683.039062 286.300781 681.113281 286.9375 679.203125 287.621094 C 677.292969 288.304688 675.402344 289.035156 673.53125 289.808594 C 671.65625 290.585938 669.800781 291.40625 667.96875 292.273438 C 666.136719 293.140625 664.324219 294.054688 662.535156 295.007812 C 660.746094 295.964844 658.984375 296.964844 657.246094 298.007812 C 655.503906 299.050781 653.792969 300.132812 652.105469 301.261719 C 650.417969 302.386719 648.761719 303.554688 647.132812 304.761719 C 645.503906 305.972656 643.90625 307.21875 642.339844 308.503906 C 640.769531 309.792969 639.234375 311.117188 637.734375 312.476562 C 636.230469 313.839844 634.761719 315.238281 633.328125 316.671875 C 631.894531 318.105469 630.496094 319.574219 629.132812 321.078125 C 627.773438 322.578125 626.449219 324.113281 625.160156 325.683594 C 623.875 327.25 622.628906 328.847656 621.417969 330.476562 C 620.210938 332.105469 619.042969 333.761719 617.917969 335.449219 C 616.789062 337.136719 615.707031 338.847656 614.664062 340.589844 C 613.621094 342.328125 612.621094 344.089844 611.664062 345.878906 C 610.710938 347.667969 609.796875 349.480469 608.929688 351.3125 C 608.0625 353.144531 607.242188 355 606.464844 356.871094 C 605.691406 358.746094 604.960938 360.636719 604.277344 362.546875 C 603.59375 364.457031 602.957031 366.382812 602.371094 368.324219 C 601.78125 370.261719 601.238281 372.21875 600.746094 374.183594 C 600.253906 376.152344 599.808594 378.128906 599.414062 380.117188 C 599.019531 382.109375 598.671875 384.105469 598.375 386.113281 C 598.078125 388.117188 597.828125 390.128906 597.628906 392.148438 C 597.429688 394.167969 597.28125 396.1875 597.183594 398.214844 C 597.082031 400.238281 597.035156 402.265625 597.035156 404.292969 C 597.035156 406.320312 597.082031 408.347656 597.183594 410.375 C 597.28125 412.398438 597.429688 414.421875 597.628906 416.441406 C 597.828125 418.457031 598.078125 420.46875 598.375 422.476562 C 598.671875 424.484375 599.019531 426.480469 599.414062 428.46875 C 599.808594 430.457031 600.253906 432.4375 600.746094 434.402344 C 601.238281 436.371094 601.78125 438.324219 602.371094 440.265625 C 602.957031 442.207031 603.59375 444.132812 604.277344 446.039062 C 604.960938 447.949219 605.691406 449.839844 606.464844 451.714844 C 607.242188 453.589844 608.0625 455.441406 608.929688 457.273438 C 609.796875 459.109375 610.710938 460.917969 611.664062 462.707031 C 612.621094 464.496094 613.621094 466.261719 614.664062 468 C 615.707031 469.738281 616.789062 471.453125 617.917969 473.136719 C 619.042969 474.824219 620.210938 476.480469 621.417969 478.113281 C 622.628906 479.742188 623.875 481.339844 625.160156 482.90625 C 626.449219 484.472656 627.773438 486.007812 629.132812 487.511719 C 630.496094 489.015625 631.894531 490.484375 633.328125 491.917969 C 634.761719 493.351562 636.230469 494.75 637.734375 496.109375 C 639.234375 497.472656 640.769531 498.796875 642.339844 500.082031 C 643.90625 501.371094 645.503906 502.617188 647.132812 503.824219 C 648.761719 505.035156 650.417969 506.199219 652.105469 507.328125 C 653.792969 508.453125 655.503906 509.539062 657.246094 510.582031 C 658.984375 511.625 660.746094 512.625 662.535156 513.578125 C 664.324219 514.535156 666.136719 515.445312 667.96875 516.3125 C 669.800781 517.179688 671.65625 518.003906 673.53125 518.777344 C 675.402344 519.554688 677.292969 520.285156 679.203125 520.96875 C 681.113281 521.652344 683.039062 522.285156 684.980469 522.875 C 686.921875 523.464844 688.875 524.003906 690.839844 524.496094 C 692.808594 524.988281 694.785156 525.433594 696.777344 525.828125 C 698.765625 526.226562 700.761719 526.574219 702.769531 526.871094 C 704.773438 527.167969 706.785156 527.414062 708.804688 527.613281 C 710.824219 527.8125 712.84375 527.960938 714.871094 528.0625 C 716.894531 528.160156 718.921875 528.210938 720.949219 528.210938 C 722.980469 528.210938 725.003906 528.160156 727.03125 528.0625 C 729.054688 527.960938 731.078125 527.8125 733.097656 527.613281 C 735.113281 527.414062 737.128906 527.167969 739.132812 526.871094 C 741.140625 526.574219 743.136719 526.226562 745.125 525.828125 C 747.113281 525.433594 749.09375 524.988281 751.058594 524.496094 C 753.027344 524.003906 754.980469 523.464844 756.921875 522.875 C 758.863281 522.285156 760.789062 521.652344 762.695312 520.96875 C 764.605469 520.285156 766.496094 519.554688 768.371094 518.777344 C 770.246094 518.003906 772.097656 517.179688 773.933594 516.3125 C 775.765625 515.445312 777.578125 514.535156 779.363281 513.578125 C 781.152344 512.625 782.917969 511.625 784.65625 510.582031 C 786.394531 509.539062 788.109375 508.453125 789.796875 507.328125 C 791.480469 506.199219 793.140625 505.035156 794.769531 503.824219 C 796.398438 502.617188 797.996094 501.371094 799.5625 500.082031 C 801.128906 498.796875 802.664062 497.472656 804.167969 496.109375 C 805.671875 494.75 807.140625 493.351562 808.574219 491.917969 C 810.007812 490.484375 811.40625 489.015625 812.765625 487.511719 C 814.128906 486.007812 815.453125 484.472656 816.738281 482.90625 C 818.027344 481.339844 819.273438 479.742188 820.480469 478.113281 C 821.691406 476.480469 822.855469 474.824219 823.984375 473.136719 C 825.109375 471.453125 826.195312 469.738281 827.238281 468 C 828.28125 466.261719 829.28125 464.496094 830.234375 462.707031 C 831.191406 460.917969 832.101562 459.109375 832.96875 457.277344 C 833.835938 455.441406 834.660156 453.589844 835.433594 451.714844 C 836.210938 449.839844 836.941406 447.949219 837.625 446.039062 C 838.308594 444.132812 838.941406 442.207031 839.53125 440.265625 C 840.121094 438.324219 840.660156 436.371094 841.152344 434.402344 C 841.648438 432.4375 842.089844 430.457031 842.488281 428.46875 C 842.882812 426.480469 843.230469 424.484375 843.527344 422.476562 C 843.824219 420.46875 844.074219 418.457031 844.269531 416.441406 C 844.46875 414.421875 844.617188 412.398438 844.71875 410.375 C 844.816406 408.347656 844.867188 406.320312 844.867188 404.292969 C 844.867188 402.265625 844.816406 400.238281 844.71875 398.214844 C 844.617188 396.1875 844.46875 394.167969 844.269531 392.148438 C 844.074219 390.128906 843.824219 388.117188 843.527344 386.113281 C 843.230469 384.105469 842.882812 382.109375 842.488281 380.117188 C 842.089844 378.128906 841.648438 376.152344 841.152344 374.183594 C 840.660156 372.21875 840.121094 370.261719 839.53125 368.324219 C 838.941406 366.382812 838.308594 364.457031 837.625 362.546875 C 836.941406 360.636719 836.210938 358.746094 835.433594 356.871094 C 834.660156 355 833.835938 353.144531 832.96875 351.3125 C 832.101562 349.480469 831.191406 347.667969 830.234375 345.878906 C 829.28125 344.089844 828.28125 342.328125 827.238281 340.589844 C 826.195312 338.847656 825.109375 337.136719 823.984375 335.449219 C 822.855469 333.761719 821.691406 332.105469 820.480469 330.476562 C 819.273438 328.847656 818.027344 327.25 816.738281 325.683594 C 815.453125 324.113281 814.128906 322.578125 812.765625 321.078125 C 811.40625 319.574219 810.007812 318.105469 808.574219 316.671875 C 807.140625 315.238281 805.671875 313.839844 804.167969 312.476562 C 802.664062 311.117188 801.128906 309.792969 799.5625 308.503906 C 797.996094 307.21875 796.398438 305.972656 794.769531 304.761719 C 793.140625 303.554688 791.480469 302.386719 789.796875 301.261719 C 788.109375 300.132812 786.394531 299.050781 784.65625 298.007812 C 782.917969 296.964844 781.152344 295.964844 779.363281 295.007812 C 777.578125 294.054688 775.765625 293.140625 773.933594 292.273438 C 772.097656 291.40625 770.246094 290.585938 768.371094 289.808594 C 766.496094 289.035156 764.605469 288.304688 762.695312 287.621094 C 760.789062 286.9375 758.863281 286.300781 756.921875 285.710938 C 754.980469 285.125 753.027344 284.582031 751.058594 284.089844 C 749.09375 283.597656 747.113281 283.152344 745.125 282.757812 C 743.136719 282.363281 741.140625 282.015625 739.132812 281.71875 C 737.128906 281.421875 735.113281 281.171875 733.097656 280.972656 C 731.078125 280.773438 729.054688 280.625 727.03125 280.527344 C 725.003906 280.425781 722.980469 280.375 720.949219 280.375 Z M 720.949219 280.375 " fill-opacity="1" fill-rule="nonzero"/><g clip-path="url(#7b010be59e)"><path fill="#f1bc19" d="M 828.964844 274.746094 C 828.09375 274.746094 827.230469 274.828125 826.378906 275 C 825.523438 275.167969 824.695312 275.421875 823.890625 275.753906 C 823.089844 276.085938 822.324219 276.496094 821.601562 276.976562 C 820.878906 277.460938 820.207031 278.011719 819.59375 278.625 C 818.976562 279.242188 818.429688 279.910156 817.945312 280.632812 C 817.460938 281.359375 817.050781 282.121094 816.71875 282.925781 C 816.386719 283.730469 816.136719 284.558594 815.964844 285.410156 C 815.796875 286.265625 815.710938 287.128906 815.710938 287.996094 C 815.710938 288.867188 815.796875 289.730469 815.964844 290.582031 C 816.136719 291.4375 816.386719 292.265625 816.71875 293.070312 C 817.050781 293.875 817.460938 294.636719 817.945312 295.359375 C 818.429688 296.085938 818.976562 296.753906 819.59375 297.367188 C 820.207031 297.984375 820.878906 298.535156 821.601562 299.015625 C 822.324219 299.5 823.089844 299.910156 823.890625 300.242188 C 824.695312 300.574219 825.523438 300.828125 826.378906 300.996094 C 827.230469 301.164062 828.09375 301.25 828.964844 301.25 C 829.835938 301.25 830.695312 301.164062 831.550781 300.996094 C 832.402344 300.828125 833.230469 300.574219 834.035156 300.242188 C 834.839844 299.910156 835.601562 299.5 836.328125 299.015625 C 837.050781 298.535156 837.71875 297.984375 838.335938 297.367188 C 838.949219 296.753906 839.5 296.085938 839.984375 295.359375 C 840.46875 294.636719 840.875 293.875 841.207031 293.070312 C 841.542969 292.265625 841.792969 291.4375 841.960938 290.582031 C 842.132812 289.730469 842.21875 288.867188 842.21875 287.996094 C 842.21875 287.128906 842.132812 286.265625 841.960938 285.410156 C 841.792969 284.558594 841.542969 283.730469 841.207031 282.925781 C 840.875 282.121094 840.46875 281.359375 839.984375 280.632812 C 839.5 279.910156 838.949219 279.242188 838.335938 278.625 C 837.71875 278.011719 837.050781 277.460938 836.328125 276.976562 C 835.601562 276.496094 834.839844 276.085938 834.035156 275.753906 C 833.230469 275.421875 832.402344 275.167969 831.550781 275 C 830.695312 274.828125 829.835938 274.746094 828.964844 274.746094 Z M 828.964844 274.746094 " fill-opacity="1" fill-rule="nonzero"/></g><path fill="#77cbd2" d="M 842.21875 311.851562 C 841.804688 311.851562 841.394531 311.894531 840.988281 311.972656 C 840.582031 312.054688 840.191406 312.175781 839.808594 312.332031 C 839.425781 312.492188 839.0625 312.683594 838.71875 312.914062 C 838.375 313.144531 838.058594 313.40625 837.765625 313.695312 C 837.472656 313.988281 837.210938 314.308594 836.984375 314.652344 C 836.753906 314.996094 836.558594 315.359375 836.402344 315.738281 C 836.242188 316.121094 836.125 316.515625 836.042969 316.921875 C 835.960938 317.324219 835.921875 317.734375 835.921875 318.148438 C 835.921875 318.5625 835.960938 318.972656 836.042969 319.375 C 836.125 319.78125 836.242188 320.175781 836.402344 320.558594 C 836.558594 320.9375 836.753906 321.300781 836.984375 321.644531 C 837.210938 321.988281 837.472656 322.308594 837.765625 322.601562 C 838.058594 322.890625 838.375 323.152344 838.71875 323.382812 C 839.0625 323.613281 839.425781 323.804688 839.808594 323.964844 C 840.191406 324.121094 840.582031 324.242188 840.988281 324.324219 C 841.394531 324.402344 841.804688 324.445312 842.21875 324.445312 C 842.628906 324.445312 843.039062 324.402344 843.445312 324.324219 C 843.851562 324.242188 844.246094 324.121094 844.625 323.964844 C 845.007812 323.804688 845.371094 323.613281 845.714844 323.382812 C 846.058594 323.152344 846.375 322.890625 846.667969 322.601562 C 846.960938 322.308594 847.222656 321.988281 847.453125 321.644531 C 847.679688 321.300781 847.875 320.9375 848.03125 320.558594 C 848.191406 320.175781 848.3125 319.78125 848.390625 319.375 C 848.472656 318.972656 848.511719 318.5625 848.511719 318.148438 C 848.511719 317.734375 848.472656 317.324219 848.390625 316.921875 C 848.3125 316.515625 848.191406 316.121094 848.03125 315.738281 C 847.875 315.359375 847.679688 314.996094 847.453125 314.652344 C 847.222656 314.308594 846.960938 313.988281 846.667969 313.695312 C 846.375 313.40625 846.058594 313.144531 845.714844 312.914062 C 845.371094 312.683594 845.007812 312.492188 844.625 312.332031 C 844.246094 312.175781 843.851562 312.054688 843.445312 311.972656 C 843.039062 311.894531 842.628906 311.851562 842.21875 311.851562 Z M 842.21875 311.851562 " fill-opacity="1" fill-rule="nonzero"/><g clip-path="url(#90c3c78fd6)"><path fill="#fbcd59" d="M 812.398438 485.46875 C 811.984375 485.46875 811.574219 485.511719 811.167969 485.589844 C 810.765625 485.671875 810.371094 485.789062 809.988281 485.949219 C 809.605469 486.105469 809.242188 486.300781 808.898438 486.53125 C 808.554688 486.761719 808.238281 487.019531 807.945312 487.3125 C 807.652344 487.605469 807.394531 487.921875 807.164062 488.265625 C 806.933594 488.609375 806.738281 488.972656 806.582031 489.355469 C 806.421875 489.738281 806.304688 490.132812 806.222656 490.535156 C 806.140625 490.941406 806.101562 491.351562 806.101562 491.765625 C 806.101562 492.179688 806.140625 492.585938 806.222656 492.992188 C 806.304688 493.398438 806.421875 493.792969 806.582031 494.175781 C 806.738281 494.554688 806.933594 494.917969 807.164062 495.261719 C 807.394531 495.605469 807.652344 495.925781 807.945312 496.214844 C 808.238281 496.507812 808.554688 496.769531 808.898438 497 C 809.242188 497.230469 809.605469 497.421875 809.988281 497.582031 C 810.371094 497.738281 810.765625 497.859375 811.167969 497.9375 C 811.574219 498.019531 811.984375 498.058594 812.398438 498.058594 C 812.8125 498.058594 813.21875 498.019531 813.625 497.9375 C 814.03125 497.859375 814.425781 497.738281 814.804688 497.582031 C 815.1875 497.421875 815.550781 497.230469 815.894531 497 C 816.238281 496.769531 816.554688 496.507812 816.847656 496.214844 C 817.140625 495.925781 817.402344 495.605469 817.632812 495.261719 C 817.863281 494.917969 818.054688 494.554688 818.214844 494.175781 C 818.371094 493.792969 818.492188 493.398438 818.570312 492.992188 C 818.652344 492.585938 818.691406 492.179688 818.691406 491.765625 C 818.691406 491.351562 818.652344 490.941406 818.570312 490.535156 C 818.492188 490.132812 818.371094 489.738281 818.214844 489.355469 C 818.054688 488.972656 817.863281 488.609375 817.632812 488.265625 C 817.402344 487.921875 817.140625 487.605469 816.847656 487.3125 C 816.554688 487.019531 816.238281 486.761719 815.894531 486.53125 C 815.550781 486.300781 815.1875 486.105469 814.804688 485.949219 C 814.425781 485.789062 814.03125 485.671875 813.625 485.589844 C 813.21875 485.511719 812.8125 485.46875 812.398438 485.46875 Z M 602.996094 435.769531 C 602.128906 435.769531 601.265625 435.855469 600.410156 436.023438 C 599.558594 436.195312 598.730469 436.445312 597.925781 436.777344 C 597.121094 437.113281 596.359375 437.519531 595.632812 438.003906 C 594.910156 438.488281 594.242188 439.035156 593.625 439.652344 C 593.011719 440.265625 592.460938 440.9375 591.976562 441.660156 C 591.496094 442.382812 591.085938 443.148438 590.753906 443.953125 C 590.421875 444.753906 590.167969 445.585938 590 446.4375 C 589.828125 447.292969 589.746094 448.152344 589.746094 449.023438 C 589.746094 449.894531 589.828125 450.753906 590 451.609375 C 590.167969 452.460938 590.421875 453.292969 590.753906 454.09375 C 591.085938 454.898438 591.496094 455.664062 591.976562 456.386719 C 592.460938 457.109375 593.011719 457.78125 593.625 458.394531 C 594.242188 459.011719 594.910156 459.558594 595.632812 460.042969 C 596.359375 460.527344 597.121094 460.933594 597.925781 461.269531 C 598.730469 461.601562 599.558594 461.851562 600.410156 462.023438 C 601.265625 462.191406 602.128906 462.277344 602.996094 462.277344 C 603.867188 462.277344 604.730469 462.191406 605.582031 462.023438 C 606.4375 461.851562 607.265625 461.601562 608.070312 461.269531 C 608.875 460.933594 609.636719 460.527344 610.359375 460.042969 C 611.085938 459.558594 611.753906 459.011719 612.367188 458.394531 C 612.984375 457.78125 613.535156 457.109375 614.015625 456.386719 C 614.5 455.664062 614.910156 454.898438 615.242188 454.09375 C 615.574219 453.292969 615.828125 452.460938 615.996094 451.609375 C 616.164062 450.753906 616.25 449.894531 616.25 449.023438 C 616.25 448.152344 616.164062 447.292969 615.996094 446.4375 C 615.828125 445.585938 615.574219 444.753906 615.242188 443.953125 C 614.910156 443.148438 614.5 442.382812 614.015625 441.660156 C 613.535156 440.9375 612.984375 440.265625 612.367188 439.652344 C 611.753906 439.035156 611.085938 438.488281 610.359375 438.003906 C 609.636719 437.519531 608.875 437.113281 608.070312 436.777344 C 607.265625 436.445312 606.4375 436.195312 605.582031 436.023438 C 604.730469 435.855469 603.867188 435.769531 602.996094 435.769531 Z M 602.996094 435.769531 " fill-opacity="1" fill-rule="nonzero"/></g><g clip-path="url(#79d234e94a)"><path fill="#77cbd2" d="M 637.125 522.578125 C 636.710938 522.578125 636.300781 522.617188 635.894531 522.699219 C 635.492188 522.78125 635.097656 522.898438 634.714844 523.058594 C 634.332031 523.214844 633.96875 523.410156 633.625 523.640625 C 633.285156 523.867188 632.964844 524.128906 632.671875 524.421875 C 632.378906 524.714844 632.121094 525.03125 631.890625 525.375 C 631.660156 525.71875 631.464844 526.082031 631.308594 526.464844 C 631.148438 526.847656 631.03125 527.238281 630.949219 527.644531 C 630.871094 528.050781 630.828125 528.460938 630.828125 528.875 C 630.828125 529.289062 630.871094 529.695312 630.949219 530.101562 C 631.03125 530.507812 631.148438 530.902344 631.308594 531.28125 C 631.464844 531.664062 631.660156 532.027344 631.890625 532.371094 C 632.121094 532.714844 632.378906 533.03125 632.671875 533.324219 C 632.964844 533.617188 633.285156 533.878906 633.625 534.109375 C 633.96875 534.335938 634.332031 534.53125 634.714844 534.691406 C 635.097656 534.847656 635.492188 534.96875 635.894531 535.046875 C 636.300781 535.128906 636.710938 535.167969 637.125 535.167969 C 637.539062 535.167969 637.945312 535.128906 638.351562 535.046875 C 638.757812 534.96875 639.152344 534.847656 639.535156 534.691406 C 639.914062 534.53125 640.277344 534.335938 640.621094 534.109375 C 640.964844 533.878906 641.285156 533.617188 641.574219 533.324219 C 641.867188 533.03125 642.128906 532.714844 642.359375 532.371094 C 642.589844 532.027344 642.78125 531.664062 642.941406 531.28125 C 643.097656 530.902344 643.21875 530.507812 643.296875 530.101562 C 643.378906 529.695312 643.417969 529.289062 643.417969 528.875 C 643.417969 528.460938 643.378906 528.050781 643.296875 527.644531 C 643.21875 527.238281 643.097656 526.847656 642.941406 526.464844 C 642.78125 526.082031 642.589844 525.71875 642.359375 525.375 C 642.128906 525.03125 641.867188 524.714844 641.574219 524.421875 C 641.285156 524.128906 640.964844 523.867188 640.621094 523.640625 C 640.277344 523.410156 639.914062 523.214844 639.535156 523.058594 C 639.152344 522.898438 638.757812 522.78125 638.351562 522.699219 C 637.945312 522.617188 637.539062 522.578125 637.125 522.578125 Z M 637.125 522.578125 " fill-opacity="1" fill-rule="nonzero"/></g><path fill="#ffffff" d="M 808.089844 333.058594 C 807.699219 333.058594 807.3125 333.097656 806.925781 333.171875 C 806.542969 333.25 806.167969 333.363281 805.808594 333.511719 C 805.445312 333.660156 805.101562 333.847656 804.777344 334.0625 C 804.453125 334.28125 804.148438 334.527344 803.875 334.804688 C 803.597656 335.082031 803.347656 335.382812 803.132812 335.707031 C 802.914062 336.035156 802.730469 336.378906 802.582031 336.738281 C 802.429688 337.101562 802.316406 337.472656 802.242188 337.859375 C 802.164062 338.242188 802.125 338.628906 802.125 339.023438 C 802.125 339.414062 802.164062 339.800781 802.242188 340.1875 C 802.316406 340.570312 802.429688 340.941406 802.582031 341.304688 C 802.730469 341.667969 802.914062 342.011719 803.132812 342.335938 C 803.347656 342.660156 803.597656 342.960938 803.875 343.238281 C 804.148438 343.515625 804.453125 343.761719 804.777344 343.980469 C 805.101562 344.199219 805.445312 344.382812 805.808594 344.53125 C 806.167969 344.683594 806.542969 344.796875 806.925781 344.871094 C 807.3125 344.949219 807.699219 344.984375 808.089844 344.984375 C 808.480469 344.984375 808.871094 344.949219 809.253906 344.871094 C 809.636719 344.796875 810.011719 344.683594 810.371094 344.53125 C 810.734375 344.382812 811.078125 344.199219 811.402344 343.980469 C 811.730469 343.761719 812.03125 343.515625 812.308594 343.238281 C 812.585938 342.960938 812.832031 342.660156 813.050781 342.335938 C 813.265625 342.011719 813.449219 341.667969 813.601562 341.304688 C 813.75 340.941406 813.863281 340.570312 813.941406 340.1875 C 814.015625 339.800781 814.054688 339.414062 814.054688 339.023438 C 814.054688 338.628906 814.015625 338.242188 813.941406 337.859375 C 813.863281 337.472656 813.75 337.101562 813.601562 336.738281 C 813.449219 336.378906 813.265625 336.035156 813.050781 335.707031 C 812.832031 335.382812 812.585938 335.082031 812.308594 334.804688 C 812.03125 334.527344 811.730469 334.28125 811.402344 334.0625 C 811.078125 333.847656 810.734375 333.660156 810.371094 333.511719 C 810.011719 333.363281 809.636719 333.25 809.253906 333.171875 C 808.871094 333.097656 808.480469 333.058594 808.089844 333.058594 Z M 615.589844 400.648438 C 615.042969 400.648438 614.503906 400.703125 613.972656 400.808594 C 613.4375 400.914062 612.921875 401.070312 612.417969 401.28125 C 611.914062 401.488281 611.4375 401.742188 610.984375 402.046875 C 610.535156 402.347656 610.117188 402.691406 609.730469 403.074219 C 609.347656 403.460938 609.003906 403.878906 608.699219 404.332031 C 608.398438 404.78125 608.144531 405.261719 607.933594 405.761719 C 607.726562 406.265625 607.570312 406.785156 607.464844 407.316406 C 607.359375 407.851562 607.304688 408.390625 607.304688 408.933594 C 607.304688 409.476562 607.359375 410.015625 607.464844 410.546875 C 607.570312 411.082031 607.726562 411.601562 607.933594 412.101562 C 608.144531 412.605469 608.398438 413.082031 608.699219 413.535156 C 609.003906 413.988281 609.347656 414.40625 609.730469 414.789062 C 610.117188 415.175781 610.535156 415.519531 610.984375 415.820312 C 611.4375 416.121094 611.914062 416.378906 612.417969 416.585938 C 612.921875 416.792969 613.4375 416.949219 613.972656 417.058594 C 614.503906 417.164062 615.042969 417.214844 615.589844 417.214844 C 616.132812 417.214844 616.671875 417.164062 617.203125 417.058594 C 617.738281 416.949219 618.253906 416.792969 618.757812 416.585938 C 619.261719 416.378906 619.738281 416.121094 620.191406 415.820312 C 620.640625 415.519531 621.0625 415.175781 621.445312 414.789062 C 621.828125 414.40625 622.171875 413.988281 622.476562 413.535156 C 622.777344 413.082031 623.03125 412.605469 623.242188 412.101562 C 623.449219 411.601562 623.605469 411.082031 623.710938 410.546875 C 623.816406 410.015625 623.871094 409.476562 623.871094 408.933594 C 623.871094 408.390625 623.816406 407.851562 623.710938 407.316406 C 623.605469 406.785156 623.449219 406.265625 623.242188 405.761719 C 623.03125 405.261719 622.777344 404.78125 622.476562 404.332031 C 622.171875 403.878906 621.828125 403.460938 621.445312 403.074219 C 621.0625 402.691406 620.640625 402.347656 620.191406 402.046875 C 619.738281 401.742188 619.261719 401.488281 618.757812 401.28125 C 618.253906 401.070312 617.738281 400.914062 617.203125 400.808594 C 616.671875 400.703125 616.132812 400.648438 615.589844 400.648438 Z M 615.589844 400.648438 " fill-opacity="1" fill-rule="nonzero"/><path fill="#fabf82" d="M 782.246094 474.535156 C 780.921875 467.578125 777.9375 463.269531 771.3125 461.28125 C 770.980469 461.28125 770.648438 460.953125 770.320312 460.953125 C 769.65625 460.621094 768.992188 460.621094 768.332031 460.289062 C 764.355469 458.632812 739.503906 449.355469 739.503906 449.355469 C 737.515625 448.691406 736.191406 447.367188 735.527344 445.710938 C 734.203125 443.058594 734.867188 436.101562 734.867188 436.101562 C 734.867188 436.101562 724.59375 439.746094 718.300781 440.742188 C 712.003906 441.402344 698.421875 433.121094 698.421875 433.121094 C 698.421875 433.121094 698.089844 443.058594 697.757812 445.378906 C 697.425781 447.035156 695.4375 448.691406 693.449219 449.023438 L 669.261719 457.96875 C 666.613281 458.632812 664.292969 459.625 661.972656 460.953125 C 656.011719 464.597656 653.027344 470.230469 651.371094 474.867188 C 651.371094 474.867188 649.714844 485.800781 649.714844 486.132812 C 649.714844 487.789062 649.382812 489.445312 649.382812 491.101562 C 675.226562 508.664062 695.769531 513.300781 731.222656 511.976562 C 747.457031 511.3125 771.3125 503.363281 783.902344 497.066406 C 783.570312 482.820312 782.246094 474.535156 782.246094 474.535156 Z M 782.246094 474.535156 " fill-opacity="1" fill-rule="nonzero"/><path fill="#88cdd7" d="M 771.3125 461.28125 C 770.980469 461.28125 770.648438 460.953125 770.320312 460.953125 C 769.65625 460.621094 768.992188 460.621094 768.332031 460.289062 C 765.679688 459.292969 755.410156 455.320312 747.789062 452.667969 L 747.457031 452.667969 C 738.84375 456.644531 727.246094 462.9375 716.3125 462.9375 C 705.378906 462.9375 694.445312 456.976562 685.167969 452.335938 L 684.171875 452.667969 L 669.261719 457.96875 C 666.613281 458.632812 664.292969 459.625 661.972656 460.953125 C 656.011719 464.597656 653.027344 470.230469 651.371094 474.867188 C 651.371094 474.867188 649.714844 485.800781 649.714844 486.132812 C 649.714844 487.789062 649.382812 504.023438 649.382812 506.011719 C 675.226562 523.574219 695.769531 528.210938 731.222656 526.886719 C 747.457031 526.222656 771.3125 518.269531 783.902344 511.976562 C 783.242188 498.058594 781.914062 474.867188 781.914062 474.867188 C 780.921875 467.578125 777.9375 463.601562 771.3125 461.28125 Z M 771.3125 461.28125 " fill-opacity="1" fill-rule="nonzero"/><path fill="#be7841" d="M 680.859375 394.683594 C 680.195312 393.691406 668.269531 366.191406 677.546875 347.96875 C 681.523438 340.347656 688.480469 335.378906 698.089844 333.058594 C 703.722656 329.082031 710.679688 327.09375 717.304688 327.09375 C 722.9375 327.09375 728.570312 328.417969 733.542969 331.402344 C 736.191406 333.058594 738.511719 334.382812 740.5 335.378906 C 746.464844 338.691406 748.449219 340.015625 751.765625 340.015625 C 752.09375 340.015625 752.425781 340.015625 753.089844 340.015625 L 753.421875 340.015625 C 754.082031 340.015625 754.414062 340.015625 754.746094 340.015625 C 757.726562 340.015625 758.722656 341.671875 758.722656 343 C 759.054688 346.3125 758.058594 349.292969 756.734375 351.945312 C 755.742188 354.261719 755.078125 356.25 755.410156 358.238281 C 761.371094 378.117188 752.09375 394.355469 751.765625 395.347656 L 749.445312 399.988281 L 749.445312 394.023438 C 749.445312 394.023438 749.445312 378.449219 745.800781 368.511719 C 741.160156 371.160156 735.527344 372.488281 729.234375 372.488281 C 718.632812 372.488281 706.703125 368.511719 694.777344 361.222656 C 684.171875 369.503906 684.171875 394.023438 684.171875 394.023438 L 684.171875 401.644531 Z M 680.859375 394.683594 " fill-opacity="1" fill-rule="nonzero"/><path fill="#472b29" d="M 717.636719 328.417969 C 722.605469 328.417969 727.910156 329.746094 733.210938 332.726562 C 744.804688 339.355469 747.125 341.339844 752.425781 341.339844 C 752.757812 341.339844 753.421875 341.339844 753.753906 341.339844 C 754.414062 341.339844 755.078125 341.339844 755.410156 341.339844 C 756.734375 341.339844 757.726562 341.671875 757.726562 343 C 758.390625 348.960938 753.421875 353.933594 754.746094 358.570312 C 760.710938 378.117188 751.101562 394.355469 751.101562 394.355469 C 751.101562 394.355469 751.101562 376.460938 746.464844 366.523438 C 741.824219 369.503906 735.859375 371.160156 728.902344 371.160156 C 718.632812 371.160156 706.703125 367.515625 694.445312 359.566406 C 682.183594 367.183594 682.515625 393.691406 682.515625 393.691406 C 682.515625 393.691406 659.324219 342.667969 698.75 334.050781 C 704.054688 330.738281 710.347656 328.417969 717.636719 328.417969 M 717.636719 325.105469 L 717.636719 328.417969 L 717.636719 325.105469 C 710.679688 325.105469 703.722656 327.425781 697.757812 331.402344 C 687.15625 333.722656 680.195312 339.023438 675.890625 346.972656 C 666.28125 366.191406 678.871094 394.023438 679.203125 395.347656 L 685.5 409.265625 L 685.5 393.691406 C 685.5 387.066406 687.15625 369.835938 694.445312 362.878906 C 706.039062 370.167969 717.96875 373.8125 728.902344 373.8125 C 734.535156 373.8125 740.167969 372.816406 744.476562 370.5 C 747.457031 380.105469 747.457031 393.691406 747.457031 393.691406 L 747.457031 405.949219 L 753.753906 395.347656 C 754.082031 394.683594 764.023438 377.789062 757.726562 356.914062 C 757.398438 355.589844 758.058594 353.933594 759.054688 351.613281 C 760.046875 348.960938 761.371094 345.648438 761.042969 341.671875 C 761.042969 340.679688 760.046875 337.367188 755.410156 337.367188 C 754.746094 337.367188 754.414062 337.367188 753.753906 337.367188 L 753.421875 337.367188 C 753.089844 337.367188 752.757812 337.367188 752.425781 337.367188 C 749.445312 337.367188 747.789062 336.371094 741.824219 333.058594 C 739.835938 332.0625 737.847656 330.738281 734.867188 329.082031 C 729.234375 326.433594 723.269531 325.105469 717.636719 325.105469 Z M 717.636719 325.105469 " fill-opacity="1" fill-rule="nonzero"/><path fill="#00a5a5" d="M 672.246094 519.929688 C 671.582031 519.929688 671.25 519.597656 671.25 518.933594 L 671.25 505.679688 C 671.25 505.019531 671.582031 504.6875 672.246094 504.6875 C 672.90625 504.6875 673.238281 505.019531 673.238281 505.679688 L 673.238281 518.933594 C 673.238281 519.597656 672.90625 519.929688 672.246094 519.929688 Z M 759.386719 522.246094 C 758.722656 522.246094 758.390625 521.914062 758.390625 521.253906 L 758.390625 506.011719 C 758.390625 505.347656 758.722656 505.019531 759.386719 505.019531 C 760.046875 505.019531 760.378906 505.347656 760.378906 506.011719 L 760.378906 521.253906 C 760.378906 521.914062 760.046875 522.246094 759.386719 522.246094 Z M 759.386719 522.246094 " fill-opacity="1" fill-rule="nonzero"/><path fill="#fddbbc" d="M 756.734375 386.734375 C 756.402344 386.734375 756.070312 386.734375 755.410156 386.734375 C 752.09375 386.734375 752.425781 387.726562 752.757812 385.738281 C 753.089844 382.09375 751.433594 368.179688 751.433594 367.183594 C 751.433594 352.273438 735.859375 340.347656 716.644531 339.683594 C 716.644531 339.683594 716.3125 339.683594 716.3125 339.683594 C 716.3125 339.683594 715.980469 339.683594 715.980469 339.683594 C 696.761719 340.347656 681.191406 352.273438 681.191406 367.183594 C 681.191406 367.847656 680.859375 382.09375 680.859375 385.738281 C 680.859375 387.726562 680.195312 386.402344 676.882812 386.734375 C 676.550781 386.734375 676.222656 386.734375 675.558594 386.734375 C 671.914062 387.066406 669.261719 389.054688 668.601562 392.035156 C 668.933594 392.367188 670.589844 404.292969 673.238281 409.265625 C 674.566406 411.914062 676.882812 412.246094 679.203125 413.902344 C 680.527344 414.898438 680.859375 415.890625 681.191406 417.214844 C 682.515625 422.515625 686.160156 426.824219 690.136719 430.800781 C 692.125 432.789062 705.046875 446.371094 716.3125 445.710938 C 727.578125 445.378906 740.5 432.457031 742.488281 430.800781 C 746.464844 426.824219 750.109375 422.515625 751.433594 417.214844 C 751.765625 415.890625 752.09375 414.566406 753.421875 413.902344 C 755.742188 412.246094 758.058594 411.914062 759.386719 409.265625 C 762.035156 404.625 763.691406 392.367188 764.023438 392.035156 C 763.03125 389.054688 760.378906 387.066406 756.734375 386.734375 Z M 756.734375 386.734375 " fill-opacity="1" fill-rule="nonzero"/><path fill="#512c2b" d="M 716.644531 410.257812 C 718.960938 410.257812 720.949219 409.265625 722.605469 407.605469 C 722.605469 407.605469 722.605469 407.277344 722.605469 406.945312 C 722.605469 406.945312 722.277344 406.945312 721.945312 406.945312 C 720.949219 408.269531 718.960938 408.933594 716.644531 408.933594 C 714.324219 408.933594 712.667969 408.269531 711.34375 406.945312 C 711.34375 406.945312 711.011719 406.945312 711.011719 406.945312 C 711.011719 406.945312 710.679688 406.945312 710.679688 406.945312 C 710.679688 406.945312 710.347656 407.277344 710.679688 407.605469 C 712.003906 409.265625 714.324219 410.257812 716.644531 410.257812 Z M 709.355469 379.445312 L 710.679688 376.792969 C 704.714844 375.46875 697.757812 375.46875 691.792969 377.457031 L 693.449219 380.105469 C 698.421875 378.449219 704.382812 378.449219 709.355469 379.445312 Z M 739.835938 379.445312 L 741.160156 376.792969 C 735.199219 375.46875 728.238281 375.46875 722.277344 377.457031 L 723.933594 380.105469 C 728.902344 378.449219 734.867188 378.449219 739.835938 379.445312 Z M 700.738281 383.421875 C 699.414062 383.421875 698.089844 384.414062 697.425781 385.738281 C 697.757812 385.738281 697.757812 385.738281 698.089844 385.738281 C 699.414062 385.738281 700.410156 386.734375 700.410156 388.058594 C 700.410156 389.382812 699.414062 390.378906 698.089844 390.378906 C 697.757812 390.378906 697.425781 390.378906 697.09375 390.046875 C 697.757812 392.367188 699.082031 393.691406 701.070312 393.691406 C 703.390625 393.691406 705.378906 391.371094 705.378906 388.390625 C 704.714844 385.738281 702.726562 383.421875 700.738281 383.421875 Z M 732.214844 383.421875 C 730.890625 383.421875 729.898438 384.082031 729.234375 385.078125 C 729.566406 385.078125 729.566406 385.078125 729.898438 385.078125 C 731.222656 385.078125 732.214844 386.070312 732.214844 387.394531 C 732.214844 388.722656 731.222656 389.714844 729.898438 389.714844 C 729.234375 389.714844 728.570312 389.382812 728.238281 388.722656 C 728.238281 391.703125 730.226562 394.023438 732.546875 394.023438 C 734.867188 394.023438 736.855469 391.703125 736.855469 388.722656 C 736.523438 385.738281 734.535156 383.421875 732.214844 383.421875 Z M 734.203125 416.222656 C 734.535156 416.222656 734.535156 415.890625 734.203125 415.558594 C 734.203125 415.226562 733.871094 415.226562 733.542969 415.558594 C 729.898438 418.542969 723.601562 420.199219 716.644531 420.199219 C 709.683594 420.199219 703.390625 418.542969 699.746094 415.558594 C 699.746094 415.558594 699.746094 415.558594 699.414062 415.558594 C 699.414062 415.558594 699.082031 415.558594 699.082031 415.558594 C 699.082031 415.890625 699.082031 415.890625 699.082031 416.222656 C 703.390625 419.535156 710.015625 421.855469 716.644531 421.855469 C 723.269531 421.855469 729.898438 419.867188 734.203125 416.222656 Z M 721.28125 433.78125 C 721.613281 433.78125 721.613281 433.449219 721.613281 433.121094 C 721.613281 432.789062 721.28125 432.457031 721.28125 432.457031 L 712.667969 432.457031 C 712.335938 432.789062 712.335938 432.789062 712.335938 433.121094 C 712.335938 433.449219 712.667969 433.78125 712.667969 433.78125 Z M 721.28125 433.78125 " fill-opacity="1" fill-rule="nonzero"/><path fill="#472b29" d="M 719.957031 529.207031 C 690.46875 529.207031 671.25 523.242188 648.722656 508 C 648.390625 507.667969 648.058594 507.007812 648.058594 506.34375 C 648.058594 506.011719 648.058594 504.6875 648.058594 503.03125 C 648.058594 495.742188 648.390625 480.832031 650.046875 474.867188 C 652.367188 466.914062 655.347656 463.601562 661.3125 459.957031 C 663.628906 458.632812 666.28125 457.636719 668.933594 456.644531 L 692.457031 448.03125 C 694.113281 447.699219 695.4375 446.371094 695.769531 445.378906 C 695.769531 445.046875 696.101562 443.390625 696.433594 438.753906 C 693.117188 436.433594 690.136719 434.113281 689.472656 433.449219 C 684.171875 428.480469 681.191406 423.84375 680.195312 418.871094 C 679.867188 417.546875 679.535156 416.882812 678.871094 416.222656 C 678.210938 415.558594 677.546875 415.226562 676.882812 414.898438 C 675.226562 413.902344 673.570312 412.910156 672.578125 410.921875 C 669.925781 405.621094 667.605469 396.011719 667.605469 392.699219 C 667.605469 392.699219 667.605469 392.367188 667.605469 392.367188 C 668.269531 388.722656 671.914062 386.070312 676.222656 385.738281 C 676.550781 385.738281 677.214844 385.738281 677.546875 385.738281 C 678.539062 385.738281 679.203125 385.738281 679.867188 385.738281 C 679.867188 381.761719 679.867188 373.148438 680.195312 369.503906 C 680.195312 368.511719 680.195312 367.847656 680.195312 367.847656 C 680.195312 352.273438 696.101562 339.355469 715.980469 338.359375 C 715.980469 338.359375 716.3125 338.359375 716.3125 338.359375 L 716.644531 340.015625 L 716.644531 338.359375 C 716.644531 338.359375 716.976562 338.359375 716.976562 338.359375 C 737.1875 339.023438 753.089844 351.945312 753.089844 367.847656 C 753.089844 368.179688 753.089844 369.171875 753.421875 370.5 C 754.082031 376.460938 754.746094 383.089844 754.414062 385.738281 L 754.414062 386.070312 C 754.746094 386.070312 755.078125 386.070312 755.078125 386.070312 L 755.410156 386.070312 C 755.738281 386.070312 756.070312 386.070312 756.734375 386.070312 C 761.042969 386.402344 764.355469 389.054688 765.347656 392.699219 C 765.347656 392.699219 765.347656 393.027344 765.347656 393.027344 C 765.347656 396.671875 763.359375 406.28125 760.378906 411.25 C 759.054688 413.570312 757.398438 414.566406 756.070312 415.226562 C 755.410156 415.558594 754.746094 415.890625 754.082031 416.554688 C 753.421875 417.214844 753.089844 417.546875 752.757812 419.203125 C 751.433594 424.171875 748.449219 428.8125 743.480469 433.78125 C 742.488281 434.445312 739.503906 437.09375 736.191406 439.746094 C 736.191406 442.726562 736.523438 444.714844 736.855469 445.710938 C 737.1875 446.703125 738.179688 448.03125 739.835938 448.359375 C 741.160156 448.691406 764.6875 457.636719 768.660156 459.292969 C 769.324219 459.625 769.988281 459.957031 770.648438 459.957031 C 770.980469 459.957031 771.3125 460.289062 771.644531 460.289062 C 778.601562 462.277344 782.246094 466.914062 783.902344 474.867188 C 783.902344 474.867188 783.902344 474.867188 783.902344 475.199219 C 783.902344 475.199219 785.230469 498.058594 785.890625 512.308594 C 785.890625 512.96875 785.558594 513.632812 784.898438 513.964844 C 771.644531 520.589844 747.457031 528.542969 731.554688 529.203125 C 727.578125 528.875 723.601562 529.207031 719.957031 529.207031 Z M 651.371094 505.679688 C 675.890625 522.246094 696.101562 527.21875 731.554688 525.558594 C 746.464844 524.898438 769.324219 517.609375 782.578125 511.3125 C 781.914062 497.730469 780.921875 477.1875 780.921875 475.53125 C 779.597656 468.570312 776.945312 465.257812 770.980469 463.601562 C 770.648438 463.601562 770.320312 463.269531 769.65625 463.269531 C 768.992188 462.9375 768.332031 462.9375 767.667969 462.609375 C 763.691406 460.953125 739.171875 452.003906 738.84375 451.675781 C 736.855469 451.011719 734.867188 449.6875 733.871094 447.367188 C 733.210938 445.710938 732.878906 443.058594 732.878906 439.082031 C 732.878906 438.421875 733.210938 438.089844 733.542969 437.757812 C 737.515625 434.777344 740.5 432.457031 741.160156 431.792969 C 745.800781 427.15625 748.449219 423.179688 749.445312 418.871094 C 749.777344 417.214844 750.109375 415.890625 752.09375 414.566406 C 752.757812 413.902344 753.753906 413.570312 754.414062 412.910156 C 755.742188 412.246094 756.734375 411.582031 757.726562 410.257812 C 760.378906 405.621094 762.035156 397.003906 762.035156 394.023438 C 761.371094 392.035156 759.386719 390.378906 756.734375 390.046875 C 756.402344 390.046875 756.070312 390.046875 755.742188 390.046875 L 755.078125 390.046875 C 753.089844 390.046875 752.425781 390.046875 751.765625 389.054688 C 751.101562 388.390625 751.101562 387.394531 751.101562 386.734375 L 751.101562 386.402344 C 751.433594 384.082031 750.4375 375.800781 750.109375 371.824219 C 749.777344 370.167969 749.777344 369.171875 749.777344 368.84375 C 749.777344 354.925781 735.199219 343.328125 716.644531 342.667969 C 716.644531 342.667969 716.644531 342.667969 716.3125 342.667969 C 716.3125 342.667969 715.980469 342.667969 715.980469 342.667969 C 697.425781 343.328125 682.847656 354.925781 682.847656 368.84375 C 682.847656 368.84375 682.847656 369.503906 682.847656 370.5 C 682.847656 374.472656 682.515625 384.414062 682.515625 387.394531 C 682.515625 388.058594 682.515625 389.054688 681.855469 389.714844 C 681.191406 390.378906 680.195312 390.378906 679.203125 390.046875 C 678.539062 390.046875 677.878906 389.714844 676.882812 390.046875 C 676.550781 390.046875 676.222656 390.046875 675.558594 390.046875 C 672.90625 390.378906 670.589844 391.703125 670.257812 394.023438 C 670.257812 397.003906 672.246094 405.949219 674.566406 410.257812 C 675.226562 411.582031 676.222656 412.246094 677.878906 412.910156 C 678.539062 413.238281 679.535156 413.902344 680.195312 414.566406 C 681.855469 415.890625 682.183594 417.546875 682.515625 418.871094 C 683.511719 423.179688 686.160156 427.15625 690.800781 431.792969 C 691.460938 432.457031 694.445312 434.777344 698.089844 437.425781 C 698.421875 437.757812 698.75 438.421875 698.75 438.753906 C 698.421875 443.058594 698.421875 445.710938 698.089844 447.035156 C 697.425781 449.6875 695.105469 451.34375 692.457031 452.003906 L 668.933594 460.621094 C 666.28125 461.28125 663.960938 462.277344 661.972656 463.601562 C 656.671875 466.914062 654.023438 469.234375 652.367188 476.523438 C 651.039062 482.15625 650.707031 497.398438 650.707031 504.023438 C 651.371094 504.023438 651.371094 505.019531 651.371094 505.679688 Z M 651.371094 505.679688 " fill-opacity="1" fill-rule="nonzero"/><path fill="#895d3d" d="M 757.066406 402.96875 L 755.078125 402.636719 L 755.742188 396.671875 L 752.425781 398 L 751.765625 396.011719 L 756.734375 394.023438 C 757.066406 394.023438 757.398438 394.023438 757.726562 394.023438 C 758.058594 394.355469 758.058594 394.683594 758.058594 395.015625 Z M 676.882812 401.644531 L 675.890625 394.023438 C 675.890625 393.691406 675.890625 393.359375 676.222656 393.027344 C 676.550781 392.699219 676.882812 392.699219 677.214844 393.027344 L 682.183594 395.015625 L 681.523438 397.003906 L 678.210938 395.679688 L 678.871094 401.644531 Z M 676.882812 401.644531 " fill-opacity="1" fill-rule="nonzero"/><path fill="#472b29" d="M 681.191406 416.554688 C 680.859375 416.554688 680.527344 416.222656 680.527344 415.890625 L 681.191406 387.394531 C 681.191406 387.066406 681.523438 386.734375 681.855469 386.734375 C 682.183594 386.734375 682.515625 387.066406 682.515625 387.394531 L 681.855469 415.890625 C 681.855469 416.222656 681.523438 416.554688 681.191406 416.554688 Z M 752.09375 416.554688 C 751.765625 416.554688 751.433594 416.222656 751.433594 415.890625 L 750.769531 387.394531 C 750.769531 387.066406 751.101562 386.734375 751.433594 386.734375 C 751.765625 386.734375 752.09375 387.066406 752.09375 387.394531 L 752.757812 415.890625 C 752.757812 416.222656 752.425781 416.554688 752.09375 416.554688 Z M 716.644531 446.703125 C 709.683594 446.703125 697.757812 438.089844 697.09375 437.757812 C 696.761719 437.425781 696.761719 437.09375 696.761719 436.765625 C 696.761719 436.433594 697.425781 436.433594 697.757812 436.433594 C 697.757812 436.433594 710.679688 445.710938 716.976562 445.046875 C 723.269531 444.386719 733.542969 437.09375 733.542969 437.09375 C 733.871094 436.765625 734.535156 436.765625 734.535156 437.425781 C 734.535156 438.089844 734.867188 438.421875 734.203125 438.421875 C 733.871094 438.753906 723.601562 446.042969 716.976562 446.703125 C 717.304688 446.703125 716.976562 446.703125 716.644531 446.703125 Z M 716.644531 446.703125 " fill-opacity="1" fill-rule="nonzero"/><path fill="#be7841" d="M 757.726562 343 C 757.398438 341.011719 755.410156 341.339844 753.421875 341.671875 C 747.125 342.003906 745.800781 340.015625 732.878906 333.058594 C 720.289062 326.101562 707.367188 328.75 698.75 335.046875 C 659.324219 343.660156 682.515625 394.683594 682.515625 394.683594 C 682.515625 394.683594 682.515625 367.847656 694.777344 359.894531 C 715.316406 373.148438 734.867188 374.804688 746.792969 366.855469 C 751.433594 377.125 751.433594 394.683594 751.433594 394.683594 C 751.433594 394.683594 761.042969 378.449219 755.078125 358.902344 C 753.089844 353.601562 758.390625 348.960938 757.726562 343 Z M 757.726562 343 " fill-opacity="1" fill-rule="nonzero"/><path fill="#472b29" d="M 752.425781 394.023438 L 750.769531 394.023438 C 750.769531 393.691406 750.769531 377.125 746.792969 367.183594 C 733.871094 375.136719 713.992188 372.15625 694.445312 359.894531 C 682.847656 368.179688 682.847656 393.691406 682.847656 393.691406 L 681.191406 393.691406 C 681.191406 392.699219 681.191406 366.191406 693.78125 357.90625 C 694.113281 357.578125 694.445312 357.578125 694.777344 357.90625 C 714.324219 370.167969 734.203125 372.816406 746.792969 364.867188 C 747.125 364.867188 747.125 364.535156 747.457031 364.867188 C 747.789062 364.867188 747.789062 365.195312 748.121094 365.195312 C 752.425781 375.800781 752.425781 393.027344 752.425781 394.023438 Z M 752.425781 394.023438 " fill-opacity="1" fill-rule="nonzero"/></svg>